HIERARCHY
ROOT Hips
{
	OFFSET 0.000000 0.000000 0.000000
	CHANNELS 6 Xposition Yposition Zposition Zrotation Yrotation Xrotation 
	JOINT LHipJoint
	{
		OFFSET 0.000000 0.000000 0.000000
		CHANNELS 3 Zrotation Yrotation Xrotation
		JOINT LeftUpLeg
		{
			OFFSET 1.363060 -1.794630 0.839290
			CHANNELS 3 Zrotation Yrotation Xrotation
			JOINT LeftLeg
			{
				OFFSET 2.448110 -6.726130 0.000000
				CHANNELS 3 Zrotation Yrotation Xrotation
				JOINT LeftFoot
				{
					OFFSET 2.562200 -7.039590 0.000000
					CHANNELS 3 Zrotation Yrotation Xrotation
					JOINT LeftToeBase
					{
						OFFSET 0.157640 -0.433110 2.322550
						CHANNELS 3 Zrotation Yrotation Xrotation
						End Site
						{
							OFFSET 0.000000 0.000000 0.000000
						}
					}
				}
			}
		}
	}
	JOINT RHipJoint
	{
		OFFSET 0.000000 0.000000 0.000000
		CHANNELS 3 Zrotation Yrotation Xrotation
		JOINT RightUpLeg
		{
			OFFSET -1.305520 -1.794630 0.839290
			CHANNELS 3 Zrotation Yrotation Xrotation
			JOINT RightLeg
			{
				OFFSET -2.542530 -6.985550 0.000000
				CHANNELS 3 Zrotation Yrotation Xrotation
				JOINT RightFoot
				{
					OFFSET -2.568260 -7.056230 0.000000
					CHANNELS 3 Zrotation Yrotation Xrotation
					JOINT RightToeBase
					{
						OFFSET -0.164730 -0.452590 2.363150
						CHANNELS 3 Zrotation Yrotation Xrotation
						End Site
						{
							OFFSET 0.000000 0.000000 0.000000
						}
					}
				}
			}
		}
	}
	JOINT LowerBack
	{
		OFFSET 0.000000 0.000000 0.000000
		CHANNELS 3 Zrotation Yrotation Xrotation
		JOINT Spine
		{
			OFFSET 0.028270 2.035590 -0.193380
			CHANNELS 3 Zrotation Yrotation Xrotation
			JOINT Spine1
			{
				OFFSET 0.056720 2.048850 -0.042750
				CHANNELS 3 Zrotation Yrotation Xrotation
				JOINT Neck
				{
					OFFSET 0.000000 0.000000 0.000000
					CHANNELS 3 Zrotation Yrotation Xrotation
					JOINT Neck1
					{
						OFFSET -0.054170 1.746240 0.172020
						CHANNELS 3 Zrotation Yrotation Xrotation
						JOINT Head
						{
							OFFSET 0.104070 1.761360 -0.123970
							CHANNELS 3 Zrotation Yrotation Xrotation
							End Site
							{
								OFFSET 0.000000 0.000000 0.000000
							}
						}
					}
				}
				JOINT LeftShoulder
				{
					OFFSET 0.000000 0.000000 0.000000
					CHANNELS 3 Zrotation Yrotation Xrotation
					JOINT LeftArm
					{
						OFFSET 3.362410 1.200890 -0.311210
						CHANNELS 3 Zrotation Yrotation Xrotation
						JOINT LeftForeArm
						{
							OFFSET 4.983000 -0.000000 -0.000000
							CHANNELS 3 Zrotation Yrotation Xrotation
							JOINT LeftHand
							{
								OFFSET 3.483560 -0.000000 -0.000000
								CHANNELS 3 Zrotation Yrotation Xrotation
								JOINT LeftFingerBase
								{
									OFFSET 0.000000 0.000000 0.000000
									CHANNELS 3 Zrotation Yrotation Xrotation
									JOINT LeftHandIndex1
									{
										OFFSET 0.715260 -0.000000 -0.000000
										CHANNELS 3 Zrotation Yrotation Xrotation
										End Site
										{
											OFFSET 0.000000 0.000000 0.000000
										}
									}
								}
								JOINT LThumb
								{
									OFFSET 0.000000 0.000000 0.000000
									CHANNELS 3 Zrotation Yrotation Xrotation
									End Site
									{
										OFFSET 0.000000 0.000000 0.000000
									}
								}
							}
						}
					}
				}
				JOINT RightShoulder
				{
					OFFSET 0.000000 0.000000 0.000000
					CHANNELS 3 Zrotation Yrotation Xrotation
					JOINT RightArm
					{
						OFFSET -3.136600 1.374050 -0.404650
						CHANNELS 3 Zrotation Yrotation Xrotation
						JOINT RightForeArm
						{
							OFFSET -5.241900 -0.000000 -0.000000
							CHANNELS 3 Zrotation Yrotation Xrotation
							JOINT RightHand
							{
								OFFSET -3.444170 -0.000000 -0.000000
								CHANNELS 3 Zrotation Yrotation Xrotation
								JOINT RightFingerBase
								{
									OFFSET 0.000000 0.000000 0.000000
									CHANNELS 3 Zrotation Yrotation Xrotation
									JOINT RightHandIndex1
									{
										OFFSET -0.622530 -0.000000 -0.000000
										CHANNELS 3 Zrotation Yrotation Xrotation
										End Site
										{
											OFFSET 0.000000 0.000000 0.000000
										}
									}
								}
								JOINT RThumb
								{
									OFFSET 0.000000 0.000000 0.000000
									CHANNELS 3 Zrotation Yrotation Xrotation
									End Site
									{
										OFFSET 0.000000 0.000000 0.000000
									}
								}
							}
						}
					}
				}
			}
		}
	}
}
MOTION
Frames: 5
Frame Time: 0.008333
4.491778 16.288964 13.098433 -10.930834 0.434570 9.596930 5.479479 -3.462360 -4.271976 -5.444323 -11.216671 -36.547148 13.427222 22.119431 72.066428 -0.048105 2.119263 -6.600998 2.663300 -10.128900 -29.395100 -6.875111 2.048837 -4.085642 39.939963 3.974182 -9.560836 -3.336043 -15.775646 40.205196 -2.233464 7.890668 -12.983988 -1.879100 8.609500 -24.581200 13.312971 4.796648 9.824093 1.781680 7.548936 -3.481291 -3.226231 2.699851 -12.915358 -28.214852 -14.062242 17.238091 14.014291 -29.362850 -0.780720 20.222200 -13.692700 1.778200 -7.436699 -7.807771 2.918058 -84.095846 30.844654 41.139976 81.574926 -55.258438 -54.955166 1.317450 -1.040818 -39.236401 18.742029 -7.637395 -1.963300 -7.125000 0.000000 0.000000 -6.165000 23.751700 3.177400 5.641292 4.512319 1.700738 73.096480 -1.681097 51.075349 -73.994632 56.601856 -46.878088 -0.754080 0.775675 1.218068 -8.947874 -13.939075 2.094900 7.125000 0.000000 0.000000 17.714400 -44.116000 0.399600 
4.509523 16.353144 13.409984 -10.834572 0.629038 9.680893 5.449329 -3.516478 -4.280451 -5.418113 -11.710160 -37.153471 12.370571 21.900889 69.110728 -0.304259 3.722792 -7.109573 2.519500 -9.873200 -28.567200 -6.846874 2.060740 -4.144368 40.012945 3.615877 -7.733945 -2.977246 -15.244380 38.663332 -2.088506 7.486894 -11.917842 -2.036100 8.940800 -25.610300 13.161741 4.995870 9.610424 1.706762 7.765134 -3.519204 -3.317540 2.802426 -12.886600 -28.098261 -14.300880 17.582649 14.191615 -29.853610 -0.984504 20.247000 -13.904700 1.800200 -7.417922 -7.754422 2.932204 -84.732763 31.587840 40.086372 82.261238 -55.336353 -55.656287 1.305721 -1.060752 -40.173131 18.067185 -7.371836 -1.804200 -7.125000 0.000000 0.000000 -6.636500 24.061700 3.375700 5.609161 4.492517 1.692166 73.339404 -1.865516 50.534486 -73.874529 56.593436 -46.791499 -0.787711 0.780562 1.872967 -9.591651 -13.230914 2.145000 7.125000 0.000000 0.000000 16.957100 -43.499400 0.647800 
4.525249 16.421894 13.724511 -10.724350 0.704752 9.876245 5.411590 -3.566889 -4.298030 -5.409221 -12.014086 -37.715131 11.228360 21.571742 65.885220 -0.551416 5.176370 -7.548811 2.374500 -9.606000 -27.710000 -6.814605 2.077776 -4.193275 40.031976 3.371689 -6.020680 -2.635780 -14.712964 37.141950 -1.950385 7.166472 -10.643692 -2.177700 9.226800 -26.507400 12.918061 5.232102 9.295392 1.627131 8.009444 -3.568421 -3.357337 2.929290 -12.841075 -27.995422 -14.534665 17.911150 14.377248 -30.335391 -1.212677 20.281800 -14.103100 1.807000 -7.399263 -7.692606 2.949250 -85.352936 32.336595 38.949218 83.011788 -55.419322 -56.432123 1.290884 -1.094963 -40.716019 17.025515 -7.048337 -1.596500 -7.125000 0.000000 0.000000 -7.385700 24.441800 3.697200 5.577890 4.472942 1.681404 73.554330 -2.118667 50.061450 -73.835463 56.600494 -46.777711 -0.819651 0.784011 2.372453 -10.246340 -12.616299 2.199100 7.125000 0.000000 0.000000 16.229400 -42.968800 0.837200 
4.538851 16.494681 14.042862 -10.597661 0.664385 10.178062 5.366363 -3.615300 -4.325283 -5.420427 -12.141288 -38.223773 10.017405 21.121137 62.415618 -0.778228 6.437509 -7.900507 2.246000 -9.360600 -26.930000 -6.777072 2.099913 -4.233377 39.983110 3.220458 -4.427800 -2.314428 -14.184287 35.651743 -1.827220 6.954261 -9.168032 -2.304700 9.473800 -27.288900 12.582629 5.505407 8.859942 1.541805 8.278394 -3.621618 -3.344024 3.082242 -12.744185 -27.899018 -14.759333 18.177184 14.567914 -30.799601 -1.441543 20.316500 -14.288000 1.817600 -7.383835 -7.627920 2.968484 -85.941049 33.059130 37.762519 83.797353 -55.503715 -57.250445 1.275263 -1.138140 -40.822016 15.790837 -6.764152 -1.394100 -7.125000 0.000000 0.000000 -8.286200 24.781800 4.090700 5.545110 4.449418 1.668226 73.737566 -2.408952 49.669934 -73.873721 56.621229 -46.831507 -0.850022 0.784082 2.700842 -10.945556 -12.120672 2.271700 7.125000 0.000000 0.000000 15.504100 -42.552400 0.961500 
4.550858 16.569806 14.365252 -10.467241 0.560416 10.544381 5.312550 -3.664346 -4.358827 -5.437840 -12.150888 -38.648890 8.758497 20.544536 58.735116 -0.975956 7.478584 -8.133575 2.138500 -9.148700 -26.261700 -6.734472 2.125491 -4.267562 39.884562 3.105090 -2.932937 -2.011163 -13.655285 34.185541 -1.722490 6.845621 -7.501339 -2.412000 9.676000 -27.933900 12.189968 5.791285 8.340334 1.455053 8.550429 -3.680242 -3.290295 3.245616 -12.622490 -27.807139 -14.970916 18.403344 14.757545 -31.238404 -1.667079 20.351700 -14.458400 1.826300 -7.370350 -7.560256 2.989801 -86.485604 33.766780 36.563175 84.602486 -55.586787 -58.091613 1.260584 -1.186611 -40.598582 14.488958 -6.638763 -1.239400 -7.125000 0.000000 0.000000 -9.236900 24.956900 4.533200 5.512664 4.423257 1.652082 73.893292 -2.755588 49.366629 -73.984823 56.655625 -46.947527 -0.878629 0.781041 2.850296 -11.676114 -11.731034 2.360700 7.125000 0.000000 0.000000 14.785000 -42.238700 1.032000 
